Coordinates
version=1
nRows=21
nColumns=38
inDegrees=no

Units are S.I. units (second, meters, Newtons, ...)
If the header above contains a line with 'inDegrees', this indicates whether rotational values are in degrees (yes) or radians (no).

endheader
time	pelvis_tilt	pelvis_list	pelvis_rotation	pelvis_tx	pelvis_ty	pelvis_tz	hip_flexion_r	hip_adduction_r	hip_rotation_r	knee_angle_r	ankle_angle_r	subtalar_angle_r	mtp_angle_r	hip_flexion_l	hip_adduction_l	hip_rotation_l	knee_angle_l	ankle_angle_l	subtalar_angle_l	mtp_angle_l	lumbar_extension	lumbar_bending	lumbar_rotation	arm_flex_r	arm_add_r	arm_rot_r	elbow_flex_r	pro_sup_r	wrist_flex_r	wrist_dev_r	arm_flex_l	arm_add_l	arm_rot_l	elbow_flex_l	pro_sup_l	wrist_flex_l	wrist_dev_l
1.38	-0.147499	0.0372382	0.0358599	0.977728	1.00336	-0.349084	0.740627	-0.0236402	0.0923099	-1.80374	0.180712	0.054096	9.92672e-06	0.121742	0.151115	-0.0165108	-0.619692	0.241649	0.0566948	-6.8431e-05	-0.0946791	-0.030725	-0.0937914	-0.648067	-0.325228	-0.208092	1.66149	1.93273	-0.000960851	0.0655155	-0.353756	-0.186263	-0.170222	2.09094	1.77297	0.0999988	0.0999984
1.39	-0.153674	0.021552	0.029801	0.979326	1.01023	-0.349038	0.772841	-0.00832231	0.0862267	-1.72908	0.187782	0.054096	9.92672e-06	0.061784	0.12855	-0.0244019	-0.559267	0.153334	0.0566948	-6.8431e-05	-0.0806232	-0.00947061	-0.103007	-0.680822	-0.324981	-0.220389	1.6963	1.91252	-0.000960851	0.0655155	-0.35637	-0.183888	-0.164325	2.14184	1.76724	0.0999988	0.0999984
1.4	-0.160216	0.00647992	0.0236303	0.981238	1.01715	-0.348939	0.798589	0.00538355	0.0765231	-1.64502	0.193208	0.054096	9.92672e-06	0.00618941	0.106523	-0.0349324	-0.502239	0.0551158	0.0566948	-6.8431e-05	-0.0658759	0.0111573	-0.110582	-0.713243	-0.323451	-0.233924	1.73031	1.89811	-0.000960851	0.0655155	-0.361283	-0.182897	-0.157051	2.19221	1.76331	0.0999988	0.0999984
1.41	-0.16668	-0.0070316	0.0173214	0.983293	1.02391	-0.348777	0.817581	0.017132	0.0648925	-1.5525	0.197014	0.054096	9.92672e-06	-0.044184	0.0865274	-0.0461612	-0.451491	-0.0477072	0.0566948	-6.8431e-05	-0.0513664	0.0300456	-0.11669	-0.744528	-0.320746	-0.248129	1.76271	1.88848	-0.000960851	0.0655155	-0.367744	-0.183399	-0.148712	2.24046	1.76111	0.0999988	0.0999984
1.42	-0.172595	-0.0181682	0.0109239	0.98534	1.03032	-0.348571	0.829599	0.0269049	0.053372	-1.45241	0.199239	0.054096	9.92672e-06	-0.0887899	0.0699596	-0.0555955	-0.409678	-0.149371	0.0566948	-6.8431e-05	-0.0379739	0.0462464	-0.121607	-0.773859	-0.317098	-0.262342	1.79303	1.88241	-0.000960851	0.0655155	-0.375156	-0.185313	-0.139725	2.28539	1.76006	0.0999988	0.0999984
1.43	-0.177482	-0.0263209	0.00456578	0.987256	1.03623	-0.348358	0.834486	0.0349197	0.0440556	-1.34567	0.2	0.054096	9.92672e-06	-0.127382	0.0579475	-0.0606097	-0.379136	-0.244151	0.0566948	-6.8431e-05	-0.0264817	0.0590997	-0.125635	-0.800483	-0.312792	-0.275946	1.82107	1.87879	-0.000960851	0.0655155	-0.383035	-0.18842	-0.130461	2.32603	1.75921	0.0999988	0.0999984
1.44	-0.180932	-0.0312005	-0.00155897	0.988955	1.04154	-0.348192	0.832172	0.0415135	0.0387563	-1.23337	0.19953	0.054096	9.92672e-06	-0.159967	0.0511997	-0.0589724	-0.361804	-0.326909	0.0566948	-6.8431e-05	-0.0175441	0.0683111	-0.129028	-0.823776	-0.308099	-0.288472	1.84683	1.87673	-0.000960851	0.0655155	-0.390966	-0.192432	-0.121134	2.3616	1.7575	0.0999988	0.0999984
1.45	-0.182615	-0.0329098	-0.00722393	0.990391	1.04615	-0.348117	0.822748	0.0470423	0.0386926	-1.1169	0.198198	0.054096	9.92672e-06	-0.186698	0.0498763	-0.0493983	-0.359166	-0.393625	0.0566948	-6.8431e-05	-0.0116279	0.0739829	-0.131943	-0.843291	-0.303241	-0.299652	1.87042	1.87569	-0.000960851	0.0655155	-0.398595	-0.197048	-0.111773	2.39138	1.75406	0.0999988	0.0999984
1.46	-0.182326	-0.0319053	-0.0122122	0.991547	1.05	-0.348154	0.806571	0.0518252	0.0442667	-0.998049	0.196488	0.054096	9.92672e-06	-0.207741	0.0534956	-0.0320197	-0.372222	-0.441834	0.0566948	-6.8431e-05	-0.00896838	0.0765941	-0.134414	-0.858775	-0.298386	-0.309409	1.89202	1.87541	-0.000960851	0.0655155	-0.405636	-0.201989	-0.102268	2.41473	1.74839	0.0999988	0.0999984
1.47	-0.180024	-0.02893	-0.0163579	0.99243	1.05303	-0.348279	0.784351	0.0561142	0.0549738	-0.879183	0.194908	0.054096	9.92672e-06	-0.223161	0.0609224	-0.00864209	-0.40148	-0.470907	0.0566948	-6.8431e-05	-0.00953829	0.0769007	-0.136358	-0.870157	-0.293673	-0.317799	1.9118	1.87584	-0.000960851	0.0655155	-0.411897	-0.207013	-0.0924661	2.43115	1.74056	0.0999988	0.0999984
1.48	-0.175887	-0.0248673	-0.0195719	0.993065	1.05519	-0.34844	0.757215	0.0600852	0.0694365	-0.76321	0.193838	0.054096	9.92672e-06	-0.232859	0.0704353	0.0173524	-0.446952	-0.482053	0.0566948	-6.8431e-05	-0.0130439	0.0758024	-0.137591	-0.877507	-0.289253	-0.324945	1.92988	1.87703	-0.000960851	0.0655155	-0.417315	-0.211922	-0.0822633	2.44032	1.7312	0.0999988	0.0999984
1.49	-0.17029	-0.0205679	-0.0218521	0.993462	1.05644	-0.348565	0.726689	0.0638155	0.0855377	-0.65354	0.193362	0.054096	9.92672e-06	-0.236593	0.0798975	0.0415331	-0.508128	-0.477983	0.0566948	-6.8431e-05	-0.0189588	0.0741868	-0.137877	-0.881002	-0.285318	-0.330963	1.94631	1.87901	-0.000960851	0.0655155	-0.42195	-0.216569	-0.0716655	2.44214	1.72138	0.0999988	0.0999984
1.5	-0.163752	-0.01673	-0.0232773	0.993629	1.05673	-0.348583	0.694626	0.0672869	0.100699	-0.553891	0.193168	0.054096	9.92672e-06	-0.234056	0.0870199	0.0593056	-0.583957	-0.462255	0.0566948	-6.8431e-05	-0.0265792	0.0727906	-0.136958	-0.880869	-0.282111	-0.335917	1.96108	1.88169	-0.000960851	0.0655155	-0.425976	-0.220869	-0.0608003	2.43678	1.71248	0.0999988	0.0999984
1.51	-0.156871	-0.0138336	-0.0239844	0.993559	1.056	-0.34845	0.663048	0.0704284	0.112301	-0.468012	0.19259	0.054096	9.92672e-06	-0.224992	0.08968	0.0669094	-0.672848	-0.438476	0.0566948	-6.8431e-05	-0.0351145	0.0721112	-0.134593	-0.877341	-0.279905	-0.3398	1.97406	1.88489	-0.000960851	0.0655155	-0.429623	-0.224801	-0.0498934	2.42466	1.70593	0.0999988	0.0999984
1.52	-0.150251	-0.0121265	-0.0241376	0.993231	1.05422	-0.348163	0.63394	0.0731874	0.118192	-0.399359	0.190794	0.054096	9.92672e-06	-0.209303	0.0862394	0.0622336	-0.772724	-0.409596	0.0566948	-6.8431e-05	-0.0438004	0.0723909	-0.130582	-0.870595	-0.278973	-0.34253	1.98501	1.88828	-0.000960851	0.0655155	-0.433119	-0.228397	-0.0392237	2.40628	1.70305	0.0999988	0.0999984
1.53	-0.144416	-0.0116535	-0.0238977	0.992612	1.05137	-0.34775	0.609036	0.075603	0.117165	-0.350785	0.187081	0.054096	9.92672e-06	-0.187114	0.0758065	0.0452326	-0.881136	-0.377525	0.0566948	-6.8431e-05	-0.0520194	0.0736638	-0.124781	-0.860703	-0.279551	-0.343958	1.99355	1.89142	-0.000960851	0.0655155	-0.436618	-0.231718	-0.0290736	2.3822	1.70483	0.0999988	0.0999984
1.54	-0.139751	-0.0122524	-0.0233968	0.991658	1.04741	-0.347266	0.589649	0.0778395	0.109218	-0.324348	0.181286	0.054096	9.92672e-06	-0.158773	0.0584009	0.0178746	-0.995421	-0.343117	0.0566948	-6.8431e-05	-0.0594128	0.0758346	-0.117113	-0.847588	-0.281818	-0.343876	1.99914	1.89387	-0.000960851	0.0655155	-0.440157	-0.23482	-0.0196863	2.35282	1.71187	0.0999988	0.0999984
1.55	-0.136398	-0.0136963	-0.022749	0.990317	1.04237	-0.346752	0.576559	0.0801479	0.0955701	-0.321151	0.174139	0.054096	9.92672e-06	-0.124796	0.0350123	-0.0163164	-1.11286	-0.306509	0.0566948	-6.8431e-05	-0.0659304	0.0787028	-0.107587	-0.830999	-0.285885	-0.342019	2.0011	1.89517	-0.000960851	0.0655155	-0.443645	-0.237726	-0.0112489	2.31841	1.72432	0.0999988	0.0999984
1.56	-0.13425	-0.0157304	-0.0220367	0.988543	1.03628	-0.346248	0.569891	0.0828419	0.0783997	-0.341118	0.167462	0.054096	9.92672e-06	-0.0857749	0.00748748	-0.0529766	-1.23083	-0.267622	0.0566948	-6.8431e-05	-0.0718477	0.0820171	-0.0962849	-0.810494	-0.291802	-0.338053	1.99866	1.89499	-0.000960851	0.0655155	-0.446896	-0.240395	-0.00389869	2.27902	1.74192	0.0999988	0.0999984
1.57	-0.132988	-0.0180825	-0.021323	0.986303	1.02924	-0.34578	0.569004	0.0862324	0.0603849	-0.382727	0.16404	0.054096	9.92672e-06	-0.0422958	-0.0217446	-0.0876858	-1.34689	-0.226633	0.0566948	-6.8431e-05	-0.0777132	0.0855204	-0.0833715	-0.785474	-0.299558	-0.331584	1.99102	1.89318	-0.000960851	0.0655155	-0.449694	-0.242725	0.00225651	2.23467	1.76402	0.0999988	0.0999984
1.58	-0.132144	-0.0204804	-0.020654	0.983589	1.02151	-0.345374	0.57243	0.0905359	0.0441414	-0.442762	0.167104	0.054096	9.92672e-06	0.00512994	-0.0500338	-0.116655	-1.45881	-0.18424	0.0566948	-6.8431e-05	-0.0842193	0.0889661	-0.0690929	-0.755267	-0.309075	-0.322176	1.97751	1.88983	-0.000960851	0.0655155	-0.451875	-0.244574	0.00711753	2.18543	1.78977	0.0999988	0.0999984
